<svg width="398" height="234" viewBox="0 0 398 234" fill="none" xmlns="http://www.w3.org/2000/svg">
<path d="M165.405 93.864C160.733 93.864 156.829 92.904 153.693 90.984C150.621 89.064 148.317 86.12 146.781 82.152C145.245 78.184 144.477 73.096 144.477 66.888C144.477 60.808 145.277 55.784 146.877 51.816C148.541 47.848 150.941 44.904 154.077 42.984C157.213 41.064 160.989 40.104 165.405 40.104C170.141 40.104 174.429 41.192 178.269 43.368C182.173 45.544 185.245 48.648 187.485 52.68C189.789 56.648 190.941 61.384 190.941 66.888C190.941 72.456 189.789 77.256 187.485 81.288C185.245 85.256 182.173 88.36 178.269 90.6C174.429 92.776 170.141 93.864 165.405 93.864ZM132.669 93V21.768H150.909V49.704L149.949 66.888L150.045 84.072V93H132.669ZM161.565 79.368C163.613 79.368 165.437 78.888 167.037 77.928C168.701 76.968 170.013 75.56 170.973 73.704C171.997 71.784 172.509 69.512 172.509 66.888C172.509 64.264 171.997 62.056 170.973 60.264C170.013 58.408 168.701 57 167.037 56.04C165.437 55.08 163.613 54.6 161.565 54.6C159.517 54.6 157.661 55.08 155.997 56.04C154.397 57 153.085 58.408 152.061 60.264C151.101 62.056 150.621 64.264 150.621 66.888C150.621 69.512 151.101 71.784 152.061 73.704C153.085 75.56 154.397 76.968 155.997 77.928C157.661 78.888 159.517 79.368 161.565 79.368ZM221.307 93.864C217.083 93.864 213.275 93.032 209.883 91.368C206.555 89.704 203.931 87.112 202.011 83.592C200.155 80.008 199.227 75.496 199.227 70.056V40.968H217.467V67.08C217.467 71.112 218.203 73.992 219.675 75.72C221.211 77.448 223.355 78.312 226.107 78.312C227.899 78.312 229.531 77.896 231.003 77.064C232.475 76.232 233.659 74.92 234.555 73.128C235.451 71.272 235.899 68.904 235.899 66.024V40.968H254.139V93H236.763V78.312L240.123 82.44C238.331 86.28 235.739 89.16 232.347 91.08C228.955 92.936 225.275 93.864 221.307 93.864ZM49.72 210V142.8H80.44C86.584 142.8 91.864 143.792 96.28 145.776C100.76 147.76 104.216 150.64 106.648 154.416C109.08 158.128 110.296 162.544 110.296 167.664C110.296 172.72 109.08 177.104 106.648 180.816C104.216 184.464 100.76 187.28 96.28 189.264C91.864 191.184 86.584 192.144 80.44 192.144H60.28L68.728 184.176V210H49.72ZM91.288 210L74.584 185.52H94.84L111.64 210H91.288ZM68.728 186.192L60.28 177.456H79.288C83.256 177.456 86.2 176.592 88.12 174.864C90.104 173.136 91.096 170.736 91.096 167.664C91.096 164.528 90.104 162.096 88.12 160.368C86.2 158.64 83.256 157.776 79.288 157.776H60.28L68.728 149.04V186.192ZM151.226 210V200.304L149.978 197.904V180.048C149.978 177.168 149.082 174.96 147.29 173.424C145.562 171.824 142.778 171.024 138.938 171.024C136.442 171.024 133.914 171.44 131.354 172.272C128.794 173.04 126.618 174.128 124.826 175.536L118.682 163.152C121.626 161.232 125.146 159.76 129.242 158.736C133.402 157.648 137.53 157.104 141.626 157.104C150.074 157.104 156.602 159.056 161.21 162.96C165.882 166.8 168.218 172.848 168.218 181.104V210H151.226ZM135.866 210.864C131.706 210.864 128.186 210.16 125.306 208.752C122.426 207.344 120.218 205.424 118.682 202.992C117.21 200.56 116.474 197.84 116.474 194.832C116.474 191.632 117.274 188.88 118.874 186.576C120.538 184.208 123.066 182.416 126.458 181.2C129.85 179.92 134.234 179.28 139.61 179.28H151.898V188.784H142.106C139.162 188.784 137.082 189.264 135.866 190.224C134.714 191.184 134.138 192.464 134.138 194.064C134.138 195.664 134.746 196.944 135.962 197.904C137.178 198.864 138.842 199.344 140.954 199.344C142.938 199.344 144.73 198.864 146.33 197.904C147.994 196.88 149.21 195.344 149.978 193.296L152.474 200.016C151.514 203.6 149.626 206.32 146.81 208.176C144.058 209.968 140.41 210.864 135.866 210.864ZM179.731 210V157.968H197.971V210H179.731ZM188.851 152.208C185.523 152.208 182.835 151.28 180.787 149.424C178.739 147.568 177.715 145.264 177.715 142.512C177.715 139.76 178.739 137.456 180.787 135.6C182.835 133.744 185.523 132.816 188.851 132.816C192.179 132.816 194.867 133.712 196.915 135.504C198.963 137.232 199.987 139.472 199.987 142.224C199.987 145.104 198.963 147.504 196.915 149.424C194.931 151.28 192.243 152.208 188.851 152.208ZM243.713 157.104C247.745 157.104 251.393 157.936 254.657 159.6C257.921 161.2 260.481 163.696 262.337 167.088C264.257 170.48 265.217 174.864 265.217 180.24V210H246.977V183.216C246.977 179.504 246.209 176.816 244.673 175.152C243.201 173.424 241.121 172.56 238.433 172.56C236.513 172.56 234.753 173.008 233.153 173.904C231.553 174.736 230.305 176.048 229.409 177.84C228.513 179.632 228.065 181.968 228.065 184.848V210H209.825V138.768H228.065V172.752L223.841 168.432C225.825 164.656 228.545 161.84 232.001 159.984C235.457 158.064 239.361 157.104 243.713 157.104ZM308.445 210V200.304L307.197 197.904V180.048C307.197 177.168 306.301 174.96 304.509 173.424C302.781 171.824 299.997 171.024 296.156 171.024C293.661 171.024 291.133 171.44 288.573 172.272C286.013 173.04 283.837 174.128 282.045 175.536L275.901 163.152C278.845 161.232 282.365 159.76 286.461 158.736C290.621 157.648 294.749 157.104 298.845 157.104C307.293 157.104 313.821 159.056 318.429 162.96C323.101 166.8 325.437 172.848 325.437 181.104V210H308.445ZM293.085 210.864C288.925 210.864 285.405 210.16 282.525 208.752C279.645 207.344 277.437 205.424 275.901 202.992C274.429 200.56 273.693 197.84 273.693 194.832C273.693 191.632 274.493 188.88 276.093 186.576C277.757 184.208 280.285 182.416 283.677 181.2C287.069 179.92 291.453 179.28 296.829 179.28H309.117V188.784H299.325C296.381 188.784 294.301 189.264 293.085 190.224C291.933 191.184 291.357 192.464 291.357 194.064C291.357 195.664 291.965 196.944 293.181 197.904C294.397 198.864 296.061 199.344 298.173 199.344C300.157 199.344 301.949 198.864 303.549 197.904C305.213 196.88 306.429 195.344 307.197 193.296L309.693 200.016C308.733 203.6 306.845 206.32 304.029 208.176C301.277 209.968 297.629 210.864 293.085 210.864ZM370.838 157.104C374.87 157.104 378.518 157.936 381.782 159.6C385.046 161.2 387.606 163.696 389.462 167.088C391.382 170.48 392.342 174.864 392.342 180.24V210H374.102V183.216C374.102 179.504 373.334 176.816 371.798 175.152C370.326 173.424 368.246 172.56 365.558 172.56C363.638 172.56 361.878 173.008 360.278 173.904C358.678 174.736 357.43 176.048 356.534 177.84C355.638 179.632 355.19 181.968 355.19 184.848V210H336.95V157.968H354.326V172.752L350.966 168.432C352.95 164.656 355.67 161.84 359.126 159.984C362.582 158.064 366.486 157.104 370.838 157.104Z" fill="white"/>
<path d="M70.5 0L131.555 105.75H9.44521L70.5 0Z" fill="white"/>
</svg>
